<svg width="30" height="30" viewBox="0 0 30 30" fill="none" xmlns="http://www.w3.org/2000/svg">
<path d="M13 2C11.355 2 10 3.35503 10 5C10 5.35184 10.0739 5.68511 10.1875 6H5C3.895 6 3 6.895 3 8V10H27V8C27 6.895 26.105 6 25 6H19.8125C19.9261 5.68511 20 5.35184 20 5C20 3.35503 18.645 2 17 2C16.2314 2 15.5334 2.30412 15 2.78711C14.4666 2.30412 13.7686 2 13 2ZM13 4C13.565 4 14 4.43497 14 5V6H13C12.435 6 12 5.56503 12 5C12 4.43497 12.435 4 13 4ZM17 4C17.565 4 18 4.43497 18 5C18 5.56503 17.565 6 17 6H16V5C16 4.43497 16.435 4 17 4ZM4 12V25C4 26.105 4.895 27 6 27H14V12H4ZM16 12V27H24C25.105 27 26 26.105 26 25V12H16Z" fill="black"/>
</svg>
