<svg width="30" height="30" viewBox="0 0 30 30" fill="none" xmlns="http://www.w3.org/2000/svg">
<path d="M15 6C11.818 6 10.5 8.041 10.5 10.5C10.5 11.328 10.8965 12.1602 10.8965 12.1602C10.7375 12.2522 10.4731 12.5445 10.5391 13.0605C10.6621 14.0225 11.0797 14.2652 11.3457 14.2852C11.4467 15.1832 12.413 16.333 12.75 16.5V17.8418C12 20.0918 6 19.75 6 25H24C24 19.75 18 20.0918 17.25 17.8418V16.5C17.588 16.333 18.5533 15.1832 18.6543 14.2852C18.9203 14.2652 19.3379 14.0225 19.4609 13.0605C19.5269 12.5435 19.2625 12.2522 19.1035 12.1602C19.1035 12.1602 19.5 11.409 19.5 10.5C19.5 8.679 18.785 7.125 17.25 7.125C17.25 7.125 16.717 6 15 6ZM22.5 7.99805C21.988 7.99805 21.5523 8.09066 21.1523 8.22266C21.3713 8.90166 21.5 9.659 21.5 10.5C21.5 11.032 21.4165 11.5197 21.3105 11.9277C21.4555 12.3567 21.5054 12.8285 21.4434 13.3125C21.3024 14.4135 20.8749 15.1618 20.3379 15.6328C20.1819 16.0108 19.9683 16.3689 19.7383 16.7109C20.0223 17.2939 20.438 17.813 20.625 17.918V17.9297C22.662 18.8847 26 20.49 26 25H30C30 20.042 25 20.7539 24.375 18.6289V17.916C24.656 17.758 25.4609 16.6722 25.5449 15.8242C25.7659 15.8052 26.1148 15.577 26.2168 14.668C26.2718 14.18 26.0519 13.9054 25.9199 13.8184C25.9199 13.8184 26.25 13.107 26.25 12.25C26.25 10.53 25.654 9.0625 24.375 9.0625C24.375 9.0625 23.931 7.99805 22.5 7.99805ZM7.5 8C6.069 8 5.625 9.0625 5.625 9.0625C4.346 9.0625 3.75 10.532 3.75 12.252C3.75 13.11 4.08008 13.8184 4.08008 13.8184C3.94708 13.9044 3.7282 14.18 3.7832 14.668C3.8852 15.577 4.23408 15.8072 4.45508 15.8262C4.53908 16.6742 5.344 17.76 5.625 17.918V18.6289C5 20.7529 0 20.042 0 25H4C4 20.49 7.338 18.8857 9.375 17.9297V17.916C9.562 17.811 9.97772 17.2949 10.2617 16.7109C10.0317 16.3689 9.81811 16.0089 9.66211 15.6309C9.12511 15.1609 8.69664 14.4125 8.55664 13.3125C8.49364 12.8225 8.54536 12.3432 8.69336 11.9102C8.58536 11.4992 8.5 11.011 8.5 10.5C8.5 9.673 8.61708 8.91275 8.83008 8.21875C8.43508 8.08975 8.005 8 7.5 8Z" fill="black"/>
</svg>
