<svg width="30" height="30" viewBox="0 0 30 30" fill="none" xmlns="http://www.w3.org/2000/svg">
<path d="M15 6C10.9331 6 5.40213 7.05947 5.39648 7.06055H5.39453C4.20631 7.30366 3.27832 8.25011 3.05469 9.44531L3.05078 9.44922L1.08398 20.1797L1.08594 20.1816C1.031 20.4458 1 20.7195 1 21C1 23.209 2.791 25 5 25C6.1864 25 7.24011 24.4729 7.97266 23.6523L7.98633 23.6602L9.5 22H15H20.5L22.0137 23.6602L22.0273 23.6523C22.7599 24.4729 23.8136 25 25 25C27.209 25 29 23.209 29 21C29 20.7195 28.969 20.4458 28.9141 20.1816L28.916 20.1797L26.9492 9.44922L26.9453 9.44531C26.7216 8.24948 25.7926 7.30305 24.6035 7.06055H24.6016C24.5969 7.05947 19.0669 6 15 6ZM8 12C8.552 12 9 12.448 9 13V14H10C10.552 14 11 14.448 11 15C11 15.552 10.552 16 10 16H9V17C9 17.552 8.552 18 8 18C7.448 18 7 17.552 7 17V16H6C5.448 16 5 15.552 5 15C5 14.448 5.448 14 6 14H7V13C7 12.448 7.448 12 8 12ZM22 12C22.552 12 23 12.448 23 13C23 13.552 22.552 14 22 14C21.448 14 21 13.552 21 13C21 12.448 21.448 12 22 12ZM20 14C20.552 14 21 14.448 21 15C21 15.552 20.552 16 20 16C19.448 16 19 15.552 19 15C19 14.448 19.448 14 20 14ZM24 14C24.552 14 25 14.448 25 15C25 15.552 24.552 16 24 16C23.448 16 23 15.552 23 15C23 14.448 23.448 14 24 14ZM22 16C22.552 16 23 16.448 23 17C23 17.552 22.552 18 22 18C21.448 18 21 17.552 21 17C21 16.448 21.448 16 22 16Z" fill="black"/>
</svg>
