<svg width="14" height="13" viewBox="0 0 14 13" fill="none" xmlns="http://www.w3.org/2000/svg">
<path d="M13.0255 0.227997C13.0255 0.227997 12.8213 0.331997 12.7702 0.331997L10.6255 1.632L3.78298 5.688L1.99575 2.62C1.79149 2.308 2.04681 1.892 2.40426 1.892L6.33617 1.84C6.69362 1.84 6.94894 1.58 7.05106 1.268C7.15319 0.799997 6.79575 0.279997 6.33617 0.279997H2.40426C0.821277 0.279997 -0.148935 2.048 0.668086 3.452L2.45532 6.52L1.43404 7.144C1.0766 7.352 0.923405 7.872 1.17872 8.236C1.38298 8.6 1.84255 8.704 2.2 8.496L3.27234 7.872L5.05958 10.992C5.8766 12.396 7.81702 12.396 8.63404 10.992L13.8936 1.632C14.2 1.008 13.7404 0.227997 13.0255 0.227997ZM10.1149 5.168L7.20426 10.16C7 10.472 6.54043 10.472 6.33617 10.16L4.54894 7.092L5.41702 6.572L11.3915 3.036L10.1149 5.168Z" fill="black"/>
</svg>
