<svg width="14" height="12" viewBox="0 0 14 12" fill="none" xmlns="http://www.w3.org/2000/svg">
<path d="M12.6535 0C12.6535 0 12.4492 0.104 12.3981 0.104L10.2535 1.404L3.41091 5.46L1.62368 2.392C1.41942 2.08 1.67474 1.664 2.03219 1.664L5.9641 1.612C6.32155 1.612 6.57687 1.352 6.67899 1.04C6.78112 0.572 6.42368 0.0520002 5.9641 0.0520002H2.03219C0.449207 0.0520002 -0.521006 1.82 0.296016 3.224L2.08325 6.292L1.06197 6.916C0.704526 7.124 0.551335 7.644 0.806654 8.008C1.01091 8.372 1.47048 8.476 1.82793 8.268L2.90027 7.644L4.68751 10.764C5.50453 12.168 7.44495 12.168 8.26197 10.764L13.5215 1.404C13.8279 0.78 13.3684 0 12.6535 0ZM9.74282 4.94L6.83219 9.932C6.62793 10.244 6.16836 10.244 5.9641 9.932L4.17687 6.864L5.04495 6.344L11.0194 2.808L9.74282 4.94Z" fill="white"/>
</svg>
