<svg width="332" height="283" viewBox="0 0 332 283" fill="none" xmlns="http://www.w3.org/2000/svg">
<path d="M308.489 0.555762C308.532 0.534321 308.57 0.515731 308.601 0.500288C325.588 0.58339 336.481 18.8063 329.207 33.3765L200.992 257.441C181.267 290.727 134.434 290.727 114.709 257.441L71.1389 182.75L70.8892 182.322L70.459 182.567L44.3159 197.506C35.8169 202.363 24.929 199.919 20.0999 191.468L20.0874 191.446L20.0727 191.425C14.0412 182.981 17.6488 170.858 26.1385 166.007L26.1476 166.002L51.0458 151.063L51.4724 150.807L51.2185 150.379L7.64685 76.9295C7.64681 76.9294 7.64677 76.9293 7.64673 76.9292C-12.0803 43.6395 11.3511 1.74491 49.5436 1.74491H145.402C150.81 1.74491 155.651 4.75101 158.846 9.16323C162.037 13.5692 163.547 19.3275 162.348 24.7647C159.9 32.0806 153.833 38.0922 145.402 38.0921L145.395 38.0922L49.5436 39.3371C49.5425 39.3371 49.5414 39.3371 49.5403 39.3371C44.9876 39.3383 41.1 41.9393 38.9982 45.496C36.8948 49.0557 36.5569 53.6166 39.161 57.5321L82.7261 130.971L82.9791 131.397L83.4077 131.148L250.225 34.0447L250.23 34.0422L302.409 2.98281C302.597 2.96619 302.805 2.92158 303.014 2.86596C303.288 2.79271 303.6 2.69018 303.929 2.57069C304.586 2.33155 305.337 2.01505 306.042 1.70182C306.748 1.38799 307.414 1.07455 307.903 0.839797C308.148 0.722345 308.349 0.624417 308.489 0.555762ZM166.981 238.055L166.988 238.044L166.995 238.033L237.952 118.527L237.955 118.522L269.074 67.4854L268.396 66.7928L122.742 151.447L122.74 151.448L101.576 163.897L101.144 164.151L101.4 164.583L144.972 238.033L144.978 238.044L144.986 238.055C150.163 245.821 161.803 245.821 166.981 238.055Z" stroke="white"/>
</svg>
