<?xml version="1.0" encoding="utf-8"?><svg viewBox="0 0 574 538" xmlns="http://www.w3.org/2000/svg" xmlns:xlink="http://www.w3.org/1999/xlink"><style>:root>svg{display:none}:root>svg:target{display:block}</style><svg viewBox="0 0 8 12" id="arrow" xmlns="http://www.w3.org/2000/svg"><path d="M7.112 6.004a.886.886 0 01-.264.637l-4.446 4.338A.889.889 0 011.16 9.706l3.795-3.702-3.803-3.71A.889.889 0 112.393 1.02l4.455 4.347a.887.887 0 01.264.636z"/></svg><svg viewBox="0 0 30 30" id="earn" xmlns="http://www.w3.org/2000/svg"><path d="M13 2c-1.645 0-3 1.355-3 3 0 .352.074.685.188 1H5a2 2 0 00-2 2v2h24V8a2 2 0 00-2-2h-5.188c.114-.315.188-.648.188-1 0-1.645-1.355-3-3-3-.769 0-1.467.304-2 .787A2.975 2.975 0 0013 2zm0 2c.565 0 1 .435 1 1v1h-1c-.565 0-1-.435-1-1s.435-1 1-1zm4 0c.565 0 1 .435 1 1s-.435 1-1 1h-1V5c0-.565.435-1 1-1zM4 12v13a2 2 0 002 2h8V12H4zm12 0v15h8a2 2 0 002-2V12H16z"/></svg><svg viewBox="0 0 574 538" id="ellipse1" xmlns="http://www.w3.org/2000/svg"><ellipse cx="287" cy="269" rx="287" ry="269"/><defs><radialGradient id="ca" cx="0" cy="0" r="1" gradientUnits="userSpaceOnUse" gradientTransform="matrix(0 269 -287 0 287 269)"><stop stop-color="#2400FF" stop-opacity=".24"/><stop offset="1" stop-color="#fff" stop-opacity="0"/></radialGradient></defs></svg><svg viewBox="0 0 574 538" id="ellipse2" xmlns="http://www.w3.org/2000/svg"><ellipse cx="287" cy="269" rx="287" ry="269"/><defs><radialGradient id="da" cx="0" cy="0" r="1" gradientUnits="userSpaceOnUse" gradientTransform="matrix(0 269 -287 0 287 269)"><stop stop-color="#0FF" stop-opacity=".24"/><stop offset="1" stop-color="#fff" stop-opacity="0"/></radialGradient></defs></svg><svg viewBox="0 0 574 538" id="ellipse3" xmlns="http://www.w3.org/2000/svg"><ellipse cx="287" cy="269" rx="287" ry="269"/><defs><radialGradient id="ea" cx="0" cy="0" r="1" gradientUnits="userSpaceOnUse" gradientTransform="matrix(0 269 -287 0 287 269)"><stop stop-color="#F90" stop-opacity=".24"/><stop offset="1" stop-color="#fff" stop-opacity="0"/></radialGradient></defs></svg><svg viewBox="0 0 574 538" id="ellipse4" xmlns="http://www.w3.org/2000/svg"><ellipse cx="287" cy="269" rx="287" ry="269"/><defs><radialGradient id="fa" cx="0" cy="0" r="1" gradientUnits="userSpaceOnUse" gradientTransform="matrix(0 269 -287 0 287 269)"><stop stop-color="#FF5C00" stop-opacity=".24"/><stop offset="1" stop-color="#fff" stop-opacity="0"/></radialGradient></defs></svg><svg viewBox="0 0 574 538" id="ellipse5" xmlns="http://www.w3.org/2000/svg"><ellipse cx="287" cy="269" rx="287" ry="269"/><defs><radialGradient id="ga" cx="0" cy="0" r="1" gradientUnits="userSpaceOnUse" gradientTransform="matrix(0 269 -287 0 287 269)"><stop stop-color="#52FF00" stop-opacity=".24"/><stop offset="1" stop-color="#fff" stop-opacity="0"/></radialGradient></defs></svg><svg viewBox="0 0 574 538" id="ellipse6" xmlns="http://www.w3.org/2000/svg"><ellipse cx="287" cy="269" rx="287" ry="269"/><defs><radialGradient id="ha" cx="0" cy="0" r="1" gradientUnits="userSpaceOnUse" gradientTransform="matrix(0 269 -287 0 287 269)"><stop stop-color="#00FFD1" stop-opacity=".24"/><stop offset="1" stop-color="#fff" stop-opacity="0"/></radialGradient></defs></svg><svg viewBox="0 0 30 30" id="frens" xmlns="http://www.w3.org/2000/svg"><path d="M15 6c-3.182 0-4.5 2.041-4.5 4.5 0 .828.396 1.66.396 1.66-.159.092-.423.384-.357.9.123.963.54 1.205.807 1.225.1.898 1.067 2.048 1.404 2.215v1.342C12 20.092 6 19.75 6 25h18c0-5.25-6-4.908-6.75-7.158V16.5c.338-.167 1.303-1.317 1.404-2.215.266-.02.684-.262.807-1.225.066-.517-.198-.808-.357-.9 0 0 .396-.751.396-1.66 0-1.821-.715-3.375-2.25-3.375 0 0-.533-1.125-2.25-1.125zm7.5 1.998c-.512 0-.948.093-1.348.225.22.679.348 1.436.348 2.277a5.7 5.7 0 01-.19 1.428c.146.429.195.9.133 1.384-.14 1.102-.568 1.85-1.105 2.32-.156.379-.37.737-.6 1.079.284.583.7 1.102.887 1.207v.012C22.662 18.885 26 20.49 26 25h4c0-4.958-5-4.246-5.625-6.371v-.713c.281-.158 1.086-1.244 1.17-2.092.22-.019.57-.247.672-1.156.055-.488-.165-.763-.297-.85 0 0 .33-.711.33-1.568 0-1.72-.596-3.188-1.875-3.188 0 0-.444-1.064-1.875-1.064zM7.5 8C6.069 8 5.625 9.063 5.625 9.063c-1.279 0-1.875 1.469-1.875 3.189 0 .858.33 1.566.33 1.566-.133.086-.352.362-.297.85.102.909.451 1.14.672 1.158.084.848.889 1.934 1.17 2.092v.71C5 20.754 0 20.043 0 25h4c0-4.51 3.338-6.114 5.375-7.07v-.014c.187-.105.603-.621.887-1.205a6.205 6.205 0 01-.6-1.08c-.537-.47-.965-1.219-1.105-2.319a3.11 3.11 0 01.136-1.402A5.612 5.612 0 018.5 10.5c0-.827.117-1.587.33-2.281A4.19 4.19 0 007.5 8z"/></svg><svg viewBox="0 0 30 30" id="game" xmlns="http://www.w3.org/2000/svg"><path d="M15 6c-4.067 0-9.598 1.06-9.604 1.06h-.001a3 3 0 00-2.34 2.385l-.004.004-1.967 10.73.002.003A4 4 0 005 25c1.186 0 2.24-.527 2.973-1.348l.013.008L9.5 22h11l1.514 1.66.013-.008A3.973 3.973 0 0025 25a4 4 0 003.914-4.818l.002-.002-1.967-10.73-.004-.005a2.999 2.999 0 00-2.341-2.384h-.002C24.597 7.059 19.067 6 15 6zm-7 6a1 1 0 011 1v1h1a1 1 0 010 2H9v1a1 1 0 01-2 0v-1H6a1 1 0 010-2h1v-1a1 1 0 011-1zm14 0a1 1 0 110 2 1 1 0 010-2zm-2 2a1 1 0 110 2 1 1 0 010-2zm4 0a1 1 0 110 2 1 1 0 010-2zm-2 2a1 1 0 110 2 1 1 0 010-2z"/></svg><svg viewBox="0 0 13 12" id="star" xmlns="http://www.w3.org/2000/svg"><path d="M6.832 1.055l1.245 3.688 3.893.045a.35.35 0 01.205.63L9.052 7.744l1.16 3.716a.35.35 0 01-.537.39L6.5 9.597l-3.176 2.252a.35.35 0 01-.536-.39l1.16-3.716L.825 5.418a.35.35 0 01.205-.63l3.892-.045 1.246-3.689a.35.35 0 01.663 0z"/></svg><svg viewBox="0 0 13 12" id="star-filled" xmlns="http://www.w3.org/2000/svg"><path d="M6.832 1.055l1.245 3.688 3.893.045a.35.35 0 01.205.63L9.052 7.744l1.16 3.716a.35.35 0 01-.537.39L6.5 9.597l-3.176 2.252a.35.35 0 01-.536-.39l1.16-3.716L.825 5.418a.35.35 0 01.205-.63l3.892-.045 1.246-3.689a.35.35 0 01.663 0z"/></svg><svg viewBox="0 0 332 283" id="ton" xmlns="http://www.w3.org/2000/svg"><path d="M308.489.556l.112-.056c16.987.083 27.88 18.306 20.606 32.877L200.992 257.44c-19.725 33.286-66.558 33.286-86.283 0l-43.57-74.691-.25-.428-.43.245-26.143 14.939c-8.5 4.857-19.387 2.413-24.216-6.038l-.013-.022-.014-.021c-6.032-8.444-2.424-20.567 6.066-25.418l.009-.005 24.898-14.939.426-.256-.254-.428-43.571-73.45C-12.08 43.64 11.35 1.745 49.544 1.745h95.858c5.408 0 10.249 3.006 13.444 7.418 3.191 4.406 4.701 10.165 3.502 15.602-2.448 7.316-8.515 13.327-16.946 13.327h-.007l-95.851 1.245h-.004c-4.552.001-8.44 2.602-10.542 6.159-2.103 3.56-2.441 8.12.163 12.036l43.565 73.439.253.426.429-.249 166.817-97.103.005-.003 52.179-31.06a3.69 3.69 0 00.605-.116c.274-.073.586-.176.915-.295.657-.24 1.408-.556 2.113-.87a71.572 71.572 0 002.447-1.145zM166.981 238.055l.007-.011.007-.011 70.957-119.506.003-.005 31.119-51.037-.678-.692-145.654 84.654-.002.001-21.164 12.449-.432.254.256.432 43.572 73.45.006.011.008.011c5.177 7.766 16.817 7.766 21.995 0z"/></svg><svg viewBox="0 0 14 13" id="ton-black" xmlns="http://www.w3.org/2000/svg"><path d="M13.025.228s-.204.104-.255.104l-2.144 1.3-6.843 4.056L1.996 2.62c-.205-.312.05-.728.408-.728l3.932-.052c.358 0 .613-.26.715-.572C7.153.8 6.796.28 6.336.28H2.404C.821.28-.149 2.048.668 3.452L2.455 6.52l-1.021.624c-.357.208-.51.728-.255 1.092a.736.736 0 001.021.26l1.072-.624 1.788 3.12a2.043 2.043 0 003.574 0l5.26-9.36c.306-.624-.154-1.404-.869-1.404zm-2.91 4.94l-2.91 4.992a.52.52 0 01-.869 0L4.55 7.092l.868-.52 5.975-3.536-1.277 2.132z"/></svg><svg viewBox="0 0 14 12" id="ton-white" xmlns="http://www.w3.org/2000/svg"><path d="M12.653 0s-.204.104-.255.104l-2.144 1.3L3.41 5.46 1.624 2.392c-.205-.312.05-.728.408-.728l3.932-.052c.358 0 .613-.26.715-.572.102-.468-.255-.988-.715-.988H2.032C.45.052-.52 1.82.296 3.224l1.787 3.068-1.021.624c-.357.208-.51.728-.255 1.092a.736.736 0 001.02.26L2.9 7.644l1.788 3.12a2.043 2.043 0 003.574 0l5.26-9.36C13.827.78 13.367 0 12.652 0zm-2.91 4.94l-2.91 4.992a.52.52 0 01-.869 0L4.177 6.864l.868-.52 5.974-3.536L9.743 4.94z"/></svg><svg viewBox="0 0 30 30" id="user" xmlns="http://www.w3.org/2000/svg"><path d="M15 3a6 6 0 00-6 6v1a6 6 0 1012 0V9a6 6 0 00-6-6zm-.002 16c-4.006 0-9.146 2.167-10.625 4.09C3.459 24.279 4.329 26 5.828 26H24.17c1.499 0 2.369-1.721 1.455-2.91C24.146 21.168 19.004 19 14.998 19z"/></svg></svg>